<svg xmlns="http://www.w3.org/2000/svg" width="22.5" height="22.5" viewBox="0 0 22.5 22.5"><g transform="translate(0.25 0.25)"><path d="M29.276,29.051H7.949V7.724a.224.224,0,0,0-.449,0V29.276a.225.225,0,0,0,.224.224H29.276a.224.224,0,0,0,0-.449Z" transform="translate(-7.5 -7.5)" fill="#fff" stroke="#fff" stroke-width="0.5"/><path d="M15.724,38.031h3.592a.225.225,0,0,0,.224-.224V29.724a.225.225,0,0,0-.224-.224H15.724a.225.225,0,0,0-.224.224v8.082A.225.225,0,0,0,15.724,38.031Zm.224-8.082h3.143v7.633H15.949Z" transform="translate(-11.908 -19.622)" fill="#fff" stroke="#fff" stroke-width="0.5"/><path d="M31.724,33.622h3.592a.225.225,0,0,0,.224-.224V21.724a.225.225,0,0,0-.224-.224H31.724a.225.225,0,0,0-.224.224V33.4A.225.225,0,0,0,31.724,33.622Zm.224-11.673h3.143V33.173H31.949Z" transform="translate(-20.724 -15.214)" fill="#fff" stroke="#fff" stroke-width="0.5"/><path d="M51.316,13.5H47.724a.225.225,0,0,0-.224.224V28.99a.225.225,0,0,0,.224.224h3.592a.225.225,0,0,0,.224-.224V13.724A.225.225,0,0,0,51.316,13.5Zm-.224,15.265H47.949V13.949h3.143Z" transform="translate(-29.541 -10.806)" fill="#fff" stroke="#fff" stroke-width="0.5"/></g></svg>