<svg xmlns="http://www.w3.org/2000/svg" width="30" height="30" viewBox="0 0 30 30"><g transform="translate(-31.132 -31.132)"><path d="M46.132,31.132a15,15,0,1,0,15,15A15.017,15.017,0,0,0,46.132,31.132Zm0,29.434A14.434,14.434,0,1,1,60.566,46.132,14.45,14.45,0,0,1,46.132,60.566Z" fill="#757479"/><path d="M101.023,94.277H94.686V87.94a.2.2,0,1,0-.409,0v6.337H87.94a.2.2,0,1,0,0,.409h6.337v6.337a.2.2,0,1,0,.409,0V94.686h6.337a.2.2,0,1,0,0-.409Z" transform="translate(-48.35 -48.35)" fill="#757479"/></g></svg>