<svg xmlns="http://www.w3.org/2000/svg" width="20.5" height="22.451" viewBox="0 0 20.5 22.451"><g transform="translate(-11.25 -9.25)"><path d="M21.5,17.793c5.607,0,10-1.821,10-4.146S27.107,9.5,21.5,9.5s-10,1.821-10,4.146S15.893,17.793,21.5,17.793Zm0-7.8c5.156,0,9.512,1.676,9.512,3.659S26.656,17.3,21.5,17.3s-9.512-1.676-9.512-3.659S16.344,9.988,21.5,9.988Z" transform="translate(0 0)" fill="#fff" stroke="#fff" stroke-width="0.5"/><path d="M31.256,25.5a.244.244,0,0,0-.244.244c0,1.983-4.356,3.659-9.512,3.659s-9.512-1.676-9.512-3.659a.244.244,0,1,0-.488,0v2.927c0,2.325,4.393,4.146,10,4.146s10-1.821,10-4.146V25.744A.244.244,0,0,0,31.256,25.5Zm-.244,3.171c0,1.983-4.356,3.659-9.512,3.659s-9.512-1.676-9.512-3.659V27.05c1.291,1.666,5.01,2.84,9.512,2.84s8.221-1.174,9.512-2.84Z" transform="translate(0 -8.195)" fill="#fff" stroke="#fff" stroke-width="0.5"/><path d="M31.256,39.5a.244.244,0,0,0-.244.244c0,1.983-4.356,3.659-9.512,3.659s-9.512-1.676-9.512-3.659a.244.244,0,0,0-.488,0v2.927c0,2.325,4.393,4.146,10,4.146s10-1.821,10-4.146V39.744A.244.244,0,0,0,31.256,39.5Zm-.244,3.171c0,1.983-4.356,3.659-9.512,3.659s-9.512-1.676-9.512-3.659V41.05c1.291,1.666,5.01,2.84,9.512,2.84s8.221-1.174,9.512-2.84Z" transform="translate(0 -15.366)" fill="#fff" stroke="#fff" stroke-width="0.5"/></g></svg>