<svg xmlns="http://www.w3.org/2000/svg" width="16.5" height="21.183" viewBox="0 0 16.5 21.183"><g transform="translate(-13.25 -5.25)"><path d="M27.939,24.427V5.7a.2.2,0,0,0-.2-.2H13.7a.2.2,0,0,0-.2.2V24.427a.2.2,0,0,0,.2.2H27.744A.2.2,0,0,0,27.939,24.427Zm-.39-.2H13.89V5.89H27.549Z" transform="translate(0 0)" fill="#fff" stroke="#fff" stroke-width="0.5"/><path d="M30.524,9.5a.2.2,0,0,0-.2.2V28.232H15.7a.2.2,0,1,0,0,.39H30.524a.2.2,0,0,0,.2-.2V9.7A.2.2,0,0,0,30.524,9.5Z" transform="translate(-1.22 -2.439)" fill="#fff" stroke="#fff" stroke-width="0.5"/><path d="M36.671,14.9v2.254a.2.2,0,1,0,.39,0V14.992a.966.966,0,0,0,.39,0v2.947a.2.2,0,1,0,.39,0V14.9a1.756,1.756,0,1,0-1.171,0Zm.585-3.014a1.366,1.366,0,1,1-1.366,1.366,1.367,1.367,0,0,1,1.366-1.366Z" transform="translate(-13.415 -3.659)" fill="#fff" stroke="#fff" stroke-width="0.5"/><path d="M19.7,13.89h3.9a.2.2,0,1,0,0-.39H19.7a.2.2,0,1,0,0,.39Z" transform="translate(-3.659 -4.878)" fill="#fff" stroke="#fff" stroke-width="0.5"/><path d="M19.7,17.89h3.9a.2.2,0,0,0,0-.39H19.7a.2.2,0,0,0,0,.39Z" transform="translate(-3.659 -7.317)" fill="#fff" stroke="#fff" stroke-width="0.5"/><path d="M19.7,21.89h3.9a.2.2,0,1,0,0-.39H19.7a.2.2,0,1,0,0,.39Z" transform="translate(-3.659 -9.756)" fill="#fff" stroke="#fff" stroke-width="0.5"/><path d="M19.7,33.89h9.366a.2.2,0,0,0,0-.39H19.7a.2.2,0,0,0,0,.39Z" transform="translate(-3.659 -17.073)" fill="#fff" stroke="#fff" stroke-width="0.5"/><path d="M19.7,37.89h9.366a.2.2,0,1,0,0-.39H19.7a.2.2,0,0,0,0,.39Z" transform="translate(-3.659 -19.512)" fill="#fff" stroke="#fff" stroke-width="0.5"/><path d="M30.378,47.5H25.7a.2.2,0,0,0,0,.39h4.683a.2.2,0,1,0,0-.39Z" transform="translate(-7.317 -25.61)" fill="#fff" stroke="#fff" stroke-width="0.5"/><path d="M27.865,43.175a.2.2,0,0,0-.234.044l-.081.093c-.263.307-.438.469-.521.481a.2.2,0,0,0-.182.345.345.345,0,0,0,.174.047,1.023,1.023,0,0,0,.63-.4.492.492,0,0,0,.236.217.511.511,0,0,0,.645-.26.193.193,0,0,0,.137.022c.084-.018.165-.041.244-.064.053-.016.105-.031.157-.043a.7.7,0,0,0,.359.2c.138.043.226.074.271.156a.2.2,0,1,0,.341-.189.765.765,0,0,0-.5-.339c-.124-.039-.169-.057-.175-.086a.193.193,0,0,0-.214-.154,2.091,2.091,0,0,0-.353.082l-.023.007a.277.277,0,0,0-.013-.043.2.2,0,0,0-.13-.212.2.2,0,0,0-.233.089c-.019.034-.039.075-.062.121-.119.24-.218.394-.3.357s-.094-.156-.073-.256A.193.193,0,0,0,27.865,43.175Z" transform="translate(-8.079 -22.908)" fill="#fff" stroke="#fff" stroke-width="0.5"/></g></svg>