<svg xmlns="http://www.w3.org/2000/svg" width="15.5" height="15.5" viewBox="0 0 15.5 15.5"><g transform="translate(-20.566 -20.566)"><path d="M34.9,22.041H33.367V20.969a.153.153,0,1,0-.306,0v1.071h-9.49V20.969a.153.153,0,1,0-.306,0v1.071H21.735a.919.919,0,0,0-.918.918V34.9a.919.919,0,0,0,.918.918H34.9a.919.919,0,0,0,.918-.918V22.959A.919.919,0,0,0,34.9,22.041Zm-13.163.306h1.531v1.071a.153.153,0,0,0,.306,0V22.347h9.49v1.071a.153.153,0,1,0,.306,0V22.347H34.9a.613.613,0,0,1,.612.612V25.1H21.122V22.959A.613.613,0,0,1,21.735,22.347ZM34.9,35.51H21.735a.613.613,0,0,1-.612-.612v-9.49H35.51V34.9A.613.613,0,0,1,34.9,35.51Z" transform="translate(0 0)" fill="#fff" stroke="#fff" stroke-width="0.5"/><path d="M64.359,80.579a.306.306,0,1,1-.433,0,.306.306,0,0,1,.433,0" transform="translate(-38.276 -53.092)" fill="#fff" stroke="#fff" stroke-width="0.5"/><path d="M86.563,80.579a.306.306,0,1,1-.433,0,.306.306,0,0,1,.433,0" transform="translate(-58.031 -53.092)" fill="#fff" stroke="#fff" stroke-width="0.5"/><path d="M108.767,80.579a.306.306,0,1,1-.433,0,.306.306,0,0,1,.433,0" transform="translate(-77.786 -53.092)" fill="#fff" stroke="#fff" stroke-width="0.5"/><path d="M130.972,80.579a.306.306,0,1,1-.433,0,.306.306,0,0,1,.433,0" transform="translate(-97.541 -53.092)" fill="#fff" stroke="#fff" stroke-width="0.5"/><path d="M42.155,102.784a.306.306,0,1,1-.433,0,.306.306,0,0,1,.433,0" transform="translate(-18.52 -72.847)" fill="#fff" stroke="#fff" stroke-width="0.5"/><path d="M64.359,102.784a.306.306,0,1,1-.433,0,.306.306,0,0,1,.433,0" transform="translate(-38.276 -72.847)" fill="#fff" stroke="#fff" stroke-width="0.5"/><path d="M86.563,102.784a.306.306,0,1,1-.433,0,.306.306,0,0,1,.433,0" transform="translate(-58.031 -72.847)" fill="#fff" stroke="#fff" stroke-width="0.5"/><path d="M108.767,102.784a.306.306,0,1,1-.433,0,.306.306,0,0,1,.433,0" transform="translate(-77.786 -72.847)" fill="#fff" stroke="#fff" stroke-width="0.5"/><path d="M130.972,102.784a.306.306,0,1,1-.433,0,.306.306,0,0,1,.433,0" transform="translate(-97.541 -72.847)" fill="#fff" stroke="#fff" stroke-width="0.5"/><path d="M42.155,124.988a.306.306,0,1,1-.433,0,.306.306,0,0,1,.433,0" transform="translate(-18.52 -92.602)" fill="#fff" stroke="#fff" stroke-width="0.5"/><path d="M64.359,124.988a.306.306,0,1,1-.433,0,.306.306,0,0,1,.433,0" transform="translate(-38.276 -92.602)" fill="#fff" stroke="#fff" stroke-width="0.5"/><path d="M82.643,120.735a.765.765,0,1,0,.765.765A.766.766,0,0,0,82.643,120.735Zm0,1.225a.459.459,0,1,1,.459-.459A.46.46,0,0,1,82.643,121.959Z" transform="translate(-54.327 -88.898)" fill="#fff" stroke="#fff" stroke-width="0.5"/></g></svg>