<svg xmlns="http://www.w3.org/2000/svg" width="18" height="24.545" viewBox="0 0 18 24.545"><path d="M21.591,24.545H4.409A.386.386,0,0,1,4,24.136v-18c0-.082.082-.245.082-.327L9.809.082c.082,0,.245-.082.327-.082H21.591A.386.386,0,0,1,22,.409V24.136A.386.386,0,0,1,21.591,24.545ZM4.818,23.727H21.182V.818H10.3L4.818,6.3Z" transform="translate(-4)" fill="#fff"/><path d="M11.5,8h-7a.5.5,0,0,1,0-1H11V.5a.5.5,0,0,1,1,0v7A.472.472,0,0,1,11.5,8Z" transform="translate(-4)" fill="#fff"/><g transform="translate(2 9.743)"><path d="M12.5,13h-6a.5.5,0,0,1,0-1h6a.5.5,0,0,1,0,1Z" transform="translate(-6 -12)" fill="#fff"/></g><g transform="translate(2 13.803)"><path d="M18.618,18H6.382C6.153,18,6,17.8,6,17.5s.153-.5.382-.5H18.618c.229,0,.382.2.382.5S18.847,18,18.618,18Z" transform="translate(-6 -17)" fill="#fff"/></g><g transform="translate(2 17.862)"><path d="M18.618,23H6.382C6.153,23,6,22.8,6,22.5s.153-.5.382-.5H18.618c.229,0,.382.2.382.5S18.847,23,18.618,23Z" transform="translate(-6 -22)" fill="#fff"/></g><g transform="translate(9.176 4.553)"><path d="M18.5,12c-1.3,0-2.4-.7-2.5-1.6a.453.453,0,1,1,.9-.1c0,.3.7.7,1.5.7s1.5-.4,1.5-.8c0-.2-.3-.6-1.5-.7h-.1c-.5-.1-2.3-.4-2.3-1.8,0-1,1.1-1.8,2.5-1.8,1.3,0,2.4.7,2.5,1.6a.458.458,0,0,1-.4.5.367.367,0,0,1-.6-.3c0-.3-.7-.7-1.5-.7s-1.5.4-1.5.8c0,.2.3.6,1.5.7h.1c.7.1,2.4.4,2.4,1.7C21,11.2,19.9,12,18.5,12Z" transform="translate(-16 -5.9)" fill="#fff"/></g><g transform="translate(11.333 3.76)"><path d="M18.5,13a.472.472,0,0,1-.5-.5v-7a.5.5,0,0,1,1,0v7A.472.472,0,0,1,18.5,13Z" transform="translate(-18 -5)" fill="#fff"/></g></svg>