<svg xmlns="http://www.w3.org/2000/svg" width="19.4" height="21.089" viewBox="0 0 19.4 21.089"><g transform="translate(-9.3 -7.3)"><path d="M13.933,7.5C11.447,7.5,9.5,8.335,9.5,9.4v1.689c0,1.065,1.947,1.9,4.433,1.9s4.433-.835,4.433-1.9V9.4C18.367,8.335,16.419,7.5,13.933,7.5Zm0,.422c2.364,0,4.011.779,4.011,1.478s-1.647,1.478-4.011,1.478S9.922,10.1,9.922,9.4,11.569,7.922,13.933,7.922Zm0,4.644c-2.364,0-4.011-.779-4.011-1.478v-.871A6.352,6.352,0,0,0,13.933,11.3a6.354,6.354,0,0,0,4.011-1.082v.871C17.944,11.788,16.3,12.567,13.933,12.567Z" transform="translate(0 0)" fill="#fff" stroke="#fff" stroke-width="0.4"/><path d="M18.156,19.5a.211.211,0,0,0-.211.211c0,.7-1.647,1.478-4.011,1.478s-4.011-.779-4.011-1.478a.211.211,0,0,0-.422,0V21.4c0,1.065,1.947,1.9,4.433,1.9s4.433-.835,4.433-1.9V19.711A.211.211,0,0,0,18.156,19.5Zm-.211,1.9c0,.7-1.647,1.478-4.011,1.478S9.922,22.1,9.922,21.4v-.866a6.382,6.382,0,0,0,4.011,1.077,6.379,6.379,0,0,0,4.011-1.077Z" transform="translate(0 -6.933)" fill="#fff" stroke="#fff" stroke-width="0.4"/><path d="M18.156,27.5a.211.211,0,0,0-.211.211c0,.7-1.647,1.478-4.011,1.478s-4.011-.779-4.011-1.478a.211.211,0,0,0-.422,0V29.4c0,1.065,1.947,1.9,4.433,1.9s4.433-.835,4.433-1.9V27.711A.211.211,0,0,0,18.156,27.5Zm-.211,1.9c0,.7-1.647,1.478-4.011,1.478S9.922,30.1,9.922,29.4v-.866a6.382,6.382,0,0,0,4.011,1.077,6.379,6.379,0,0,0,4.011-1.077Z" transform="translate(0 -11.556)" fill="#fff" stroke="#fff" stroke-width="0.4"/><path d="M18.156,35.5a.211.211,0,0,0-.211.211c0,.7-1.647,1.478-4.011,1.478s-4.011-.779-4.011-1.478a.211.211,0,0,0-.422,0V37.4c0,1.065,1.947,1.9,4.433,1.9s4.433-.835,4.433-1.9V35.711A.211.211,0,0,0,18.156,35.5Zm-.211,1.9c0,.7-1.647,1.478-4.011,1.478S9.922,38.1,9.922,37.4v-.866a6.382,6.382,0,0,0,4.011,1.077,6.379,6.379,0,0,0,4.011-1.077Z" transform="translate(0 -16.178)" fill="#fff" stroke="#fff" stroke-width="0.4"/><path d="M18.156,43.5a.211.211,0,0,0-.211.211c0,.7-1.647,1.478-4.011,1.478s-4.011-.779-4.011-1.478a.211.211,0,1,0-.422,0V45.4c0,1.065,1.947,1.9,4.433,1.9s4.433-.835,4.433-1.9V43.711A.211.211,0,0,0,18.156,43.5Zm-.211,1.9c0,.7-1.647,1.478-4.011,1.478S9.922,46.1,9.922,45.4v-.866a6.382,6.382,0,0,0,4.011,1.077,6.379,6.379,0,0,0,4.011-1.077Z" transform="translate(0 -20.8)" fill="#fff" stroke="#fff" stroke-width="0.4"/><path d="M37.933,27.5c-2.486,0-4.433.835-4.433,1.9v1.689c0,1.065,1.947,1.9,4.433,1.9s4.433-.835,4.433-1.9V29.4C42.367,28.335,40.419,27.5,37.933,27.5Zm0,.422c2.364,0,4.011.779,4.011,1.478s-1.647,1.478-4.011,1.478S33.922,30.1,33.922,29.4,35.569,27.922,37.933,27.922Zm0,4.644c-2.364,0-4.011-.779-4.011-1.478v-.871A6.352,6.352,0,0,0,37.933,31.3a6.352,6.352,0,0,0,4.011-1.082v.871C41.944,31.788,40.3,32.567,37.933,32.567Z" transform="translate(-13.867 -11.556)" fill="#fff" stroke="#fff" stroke-width="0.4"/><path d="M42.156,39.5a.211.211,0,0,0-.211.211c0,.7-1.647,1.478-4.011,1.478s-4.011-.779-4.011-1.478a.211.211,0,1,0-.422,0V41.4c0,1.065,1.947,1.9,4.433,1.9s4.433-.835,4.433-1.9V39.711A.211.211,0,0,0,42.156,39.5Zm-.211,1.9c0,.7-1.647,1.478-4.011,1.478S33.922,42.1,33.922,41.4v-.866a6.382,6.382,0,0,0,4.011,1.077,6.379,6.379,0,0,0,4.011-1.077Z" transform="translate(-13.867 -18.489)" fill="#fff" stroke="#fff" stroke-width="0.4"/><path d="M42.156,47.5a.211.211,0,0,0-.211.211c0,.7-1.647,1.478-4.011,1.478s-4.011-.779-4.011-1.478a.211.211,0,0,0-.422,0V49.4c0,1.065,1.947,1.9,4.433,1.9s4.433-.835,4.433-1.9V47.711A.211.211,0,0,0,42.156,47.5Zm-.211,1.9c0,.7-1.647,1.478-4.011,1.478S33.922,50.1,33.922,49.4v-.866a6.382,6.382,0,0,0,4.011,1.077,6.379,6.379,0,0,0,4.011-1.077Z" transform="translate(-13.867 -23.111)" fill="#fff" stroke="#fff" stroke-width="0.4"/></g></svg>