<svg xmlns="http://www.w3.org/2000/svg" width="16" height="16" viewBox="0 0 16 16"><g transform="translate(-88.5 -343.508)"><circle cx="7.5" cy="7.5" r="7.5" transform="translate(89 344.008)" fill="none" stroke="#fff" stroke-linecap="round" stroke-linejoin="round" stroke-width="1"/><path d="M14.027,10.926a1.688,1.688,0,0,1-.529,1.266,2.418,2.418,0,0,1-1.417.624v.761a.279.279,0,0,1-.279.279h-.237a.279.279,0,0,1-.279-.279v-.742a4.3,4.3,0,0,1-1.181-.25,3.125,3.125,0,0,1-.655-.331q-.042-.028-.123-.09h0a.279.279,0,0,1-.081-.341l.115-.24a.279.279,0,0,1,.372-.13l.031.017.077.049a4.461,4.461,0,0,0,.641.353,3.227,3.227,0,0,0,1.1.18,1.791,1.791,0,0,0,1.082-.283.95.95,0,0,0,.383-.813.667.667,0,0,0-.2-.506,1.362,1.362,0,0,0-.506-.3q-.3-.1-.841-.246a9.174,9.174,0,0,1-1.153-.359,1.918,1.918,0,0,1-.761-.558,1.509,1.509,0,0,1-.317-1,1.738,1.738,0,0,1,.553-1.3,2.43,2.43,0,0,1,1.46-.638V5.3a.279.279,0,0,1,.279-.279h.237a.279.279,0,0,1,.279.279V6.05a3.547,3.547,0,0,1,1.035.265,3.061,3.061,0,0,1,.462.244q.079.051.193.142h0a.279.279,0,0,1,.077.34l-.1.212a.279.279,0,0,1-.412.1l0,0a2.784,2.784,0,0,0-1.644-.529,1.663,1.663,0,0,0-1.039.3.974.974,0,0,0-.387.817.783.783,0,0,0,.217.572,1.432,1.432,0,0,0,.539.34,8.045,8.045,0,0,0,.879.25A8.708,8.708,0,0,1,13,9.443a1.826,1.826,0,0,1,.728.529A1.433,1.433,0,0,1,14.027,10.926Z" transform="translate(84.917 341.784)" fill="#fff" fill-rule="evenodd"/></g></svg>