<svg xmlns="http://www.w3.org/2000/svg" width="24.002" height="24" viewBox="0 0 24.002 24"><g transform="translate(0 -47)"><g transform="translate(0 47)"><path d="M23.461,11.809a.485.485,0,0,0-.1-.147s0-.01-.01-.014l-4-4a.5.5,0,1,0-.707.707L21.792,11.5H10a.5.5,0,0,0,0,1H21.793l-3.147,3.147a.5.5,0,0,0,0,.707.5.5,0,0,0,.708,0l4-4a.5.5,0,0,0,.049-.074.507.507,0,0,0,.058-.087A.5.5,0,0,0,23.461,11.809ZM16,15.5a.5.5,0,0,0-.5.5v5A1.5,1.5,0,0,1,14,22.5H3A1.5,1.5,0,0,1,1.5,21V3A1.5,1.5,0,0,1,3,1.5H14A1.5,1.5,0,0,1,15.5,3V8a.5.5,0,0,0,1,0V3A2.5,2.5,0,0,0,14,.5H3A2.5,2.5,0,0,0,.5,3V21A2.5,2.5,0,0,0,3,23.5H14A2.5,2.5,0,0,0,16.5,21V16A.5.5,0,0,0,16,15.5Z" fill="#fff" stroke="#fff" stroke-width="1"/></g></g></svg>