<svg xmlns="http://www.w3.org/2000/svg" width="31" height="31" viewBox="0 0 31 31"><path d="M51.9,24.2,46.04,18.343a.346.346,0,0,0-.488,0L22.1,41.79a.345.345,0,0,0-.1.245V47.9a.346.346,0,0,0,.345.345H28.21a.348.348,0,0,0,.245-.1L51.9,24.694a.346.346,0,0,0,0-.489ZM28.067,47.551H22.694V42.178L41.888,22.983l5.373,5.373ZM47.75,27.868l-5.373-5.373,3.42-3.42,5.373,5.373-3.42,3.42Z" transform="translate(-21.503 -17.742)" fill="rgba(255,255,255,0.75)" stroke="#fff" stroke-width="1" opacity="0.75"/></svg>