<svg xmlns="http://www.w3.org/2000/svg" width="32" height="32" viewBox="0 0 32 32"><path d="M2.709,15.23H1.555A1.571,1.571,0,0,1,.1,14.127,1.758,1.758,0,0,1,.556,12.28L12.974,1.17a4.434,4.434,0,0,1,5.991,0L31.445,12.28a1.756,1.756,0,0,1,.472,1.86,1.57,1.57,0,0,1-1.47,1.106H29.292a.811.811,0,0,0-.78.838V26.978a4.863,4.863,0,0,1-4.68,5.028h-1.56a3.242,3.242,0,0,1-3.12-3.352V23.626a3.242,3.242,0,0,0-3.12-3.352h0a3.242,3.242,0,0,0-3.12,3.352v5.028a3.242,3.242,0,0,1-3.12,3.352H8.232a4.863,4.863,0,0,1-4.68-5.028V16.068a.868.868,0,0,0-.25-.618A.748.748,0,0,0,2.709,15.23Z" transform="translate(-0.01 -0.005)" fill="#fff"/></svg>