<svg id="Layer_1" data-name="Layer 1" xmlns="http://www.w3.org/2000/svg" viewBox="0 0 632.28 333.06"><path d="M504.42,62.51l1.68.75c44,19.84,69.25,60.6,72.37,108.48,2,30.27-8.78,56.09-9.85,57.43-7.42-5.95-14.24-12.68-21.31-19-8.61-7.76-17.85-14.34-29.62-16-11.38-1.57-22.74,1.78-32.29,8l-.94.62c-20.81,14-29.69,50.61-19.08,74.85,14.24,32.54,42.37,55.15,75.31,67.09a238,238,0,0,0,50.19,12.05c15.93,2.1,33.07,3.69,49.07,1.69a56,56,0,0,0,9.33-1.61,42.31,42.31,0,0,1-4.13,3.7,32,32,0,0,1-5.7,3.73c-7,3.67-14.74,5.49-22.37,7.33a164.88,164.88,0,0,1-22.73,3.81,167.14,167.14,0,0,1-93.66-18.46c-20.91-11.06-39.22-27.68-51.2-48.15a112.24,112.24,0,0,1-6.51-13q-.32-.72-.6-1.44c-14.28-35.27-10.24-76.84,14.87-106.23,12.28-14.36,31.3-21.66,50-20.33a61.28,61.28,0,0,1,24.28,6.91c8.38,4.43,16.08,9.58,22.65,16.46.79-5.65,1.64-12.63,1.26-18.53-1.38-21.52-10.32-42.89-25.67-58.53-14-14.25-32.5-23.61-51.47-29.25A147.86,147.86,0,0,0,445.94,79c-76.47-4.93-146,35.44-197.34,89.18-26.14,27.34-47.71,58.23-66.3,91.09-19.11,33.78-36,70.7-65.34,97.12a86.86,86.86,0,0,1-30,18.11,89.62,89.62,0,0,1-70-5.67c30.9.31,59.83-16.75,81.21-39.06s36.53-49.68,52.43-76.17C211.44,152.3,281.38,60.4,407.15,47,439.63,43.57,474.46,49.36,504.42,62.51Z" transform="translate(-17 -46.04)" fill="#fdfdfd"/></svg>