<svg xmlns="http://www.w3.org/2000/svg" width="32" height="32" viewBox="0 0 32 32"><path d="M29.333,3H5.867C4.4,3,3.2,4.5,3.2,6.333v2H2.667C1.2,8.333,0,9.829,0,11.667v20C0,33.505,1.2,35,2.667,35H29.333C30.8,35,32,33.505,32,31.667V6.333C32,4.5,30.8,3,29.333,3ZM3.2,33.667H2.667a1.836,1.836,0,0,1-1.6-2v-20a1.836,1.836,0,0,1,1.6-2H3.2ZM17.067,29a.612.612,0,0,1-.533.667h-9.6A.612.612,0,0,1,6.4,29V19.667A.612.612,0,0,1,6.933,19h9.6a.612.612,0,0,1,.533.667Zm11.2.667H19.733a.683.683,0,0,1,0-1.333h8.533a.683.683,0,0,1,0,1.333Zm0-5.333H19.733a.683.683,0,0,1,0-1.333h8.533a.683.683,0,0,1,0,1.333Zm0-4H19.733a.683.683,0,0,1,0-1.333h8.533a.683.683,0,0,1,0,1.333Zm0-5.333H6.933a.683.683,0,0,1,0-1.333H28.267a.683.683,0,0,1,0,1.333Zm0-5.333H6.933A.612.612,0,0,1,6.4,9a.612.612,0,0,1,.533-.667H28.267A.612.612,0,0,1,28.8,9,.612.612,0,0,1,28.267,9.667Z" transform="translate(0 -3)" fill="#fff"/></svg>