<svg xmlns="http://www.w3.org/2000/svg" width="27.5" height="24.378" viewBox="0 0 27.5 24.378"><g transform="translate(0.4 0.4)"><g transform="translate(0 12.749)"><path d="M13.26,10.469h-.846V4.3a.827.827,0,0,0-.846-.8H1.975a.827.827,0,0,0-.846.8v6.165H.282A.275.275,0,0,0,0,10.737v.536a1.379,1.379,0,0,0,1.411,1.34H12.132a1.379,1.379,0,0,0,1.411-1.34v-.536A.275.275,0,0,0,13.26,10.469ZM1.693,4.3a.275.275,0,0,1,.282-.268h9.592a.275.275,0,0,1,.282.268v6.165H9.028a.287.287,0,0,0-.2.078L8.348,11H5.2l-.482-.458a.292.292,0,0,0-.2-.078H1.693Zm11.285,6.969a.827.827,0,0,1-.846.8H1.411a.827.827,0,0,1-.846-.8V11H4.4l.481.458a.292.292,0,0,0,.2.078H8.464a.29.29,0,0,0,.2-.078L9.145,11h3.833Z" transform="translate(1.354 -3.5)" fill="#fff" stroke="#fff" stroke-width="0.2"/><g transform="translate(0 1.749)"><rect width="5.772" height="9.48" transform="translate(0 0)" fill="#1f1f1f"/><g transform="translate(0 1.87)"><path d="M9.236,4.433H4.181a.22.22,0,0,1,0-.433H9.236a.22.22,0,0,1,0,.433Z" transform="translate(-4 -4)" fill="#fff" stroke="#fff" stroke-width="0.1"/></g><g transform="translate(2.275 7.614)"><path d="M10.933,20.867a.433.433,0,1,1,.433-.433A.434.434,0,0,1,10.933,20.867Zm0-.434Z" transform="translate(-10.5 -20)" fill="#fff" stroke="#fff" stroke-width="0.1"/></g><g transform="translate(2.058 1.143)"><path d="M11.083,2.433h-.867a.217.217,0,1,1,0-.433h.867a.217.217,0,1,1,0,.433Z" transform="translate(-10 -2)" fill="#fff" stroke="#fff" stroke-width="0.1"/></g><g transform="translate(0 0.438)"><path d="M8.514,8.667H4.9a.9.9,0,0,1-.9-.9V.9A.9.9,0,0,1,4.9,0H8.514a.9.9,0,0,1,.9.9V7.764A.9.9,0,0,1,8.514,8.667ZM4.9.361A.542.542,0,0,0,4.361.9V7.764a.542.542,0,0,0,.542.542H8.514a.542.542,0,0,0,.542-.542V.9A.542.542,0,0,0,8.514.361Z" transform="translate(-4 0)" fill="#fff" stroke="#fff" stroke-width="0.1"/></g><g transform="translate(0 6.881)"><path d="M9.236,18.433H4.181a.22.22,0,0,1,0-.433H9.236a.22.22,0,0,1,0,.433Z" transform="translate(-4 -18)" fill="#fff" stroke="#fff" stroke-width="0.1"/></g></g></g><g transform="translate(14 10.224)"><path d="M8.175,3.891a.306.306,0,0,0-.325.283V6.883L5.345,9.061a.258.258,0,0,0,0,.4.362.362,0,0,0,.46,0L8.405,7.2A.267.267,0,0,0,8.5,7V4.174A.306.306,0,0,0,8.175,3.891Zm6.5,2.261h-.41a4.884,4.884,0,0,0-.7-1.758.306.306,0,0,0,.035-.02l.487-.424a.258.258,0,0,0,0-.4l-.65-.565a.361.361,0,0,0-.46,0l-.352.306a6.1,6.1,0,0,0-.881-.661V.783A.306.306,0,0,0,11.425.5h-6.5A.306.306,0,0,0,4.6.783V2.63A5.193,5.193,0,0,0,2,7a5.193,5.193,0,0,0,2.6,4.37v1.848a.306.306,0,0,0,.325.283h6.5a.307.307,0,0,0,.326-.283V11.37a5.335,5.335,0,0,0,2.515-3.522h.409A.306.306,0,0,0,15,7.565V6.435A.306.306,0,0,0,14.675,6.152ZM13.212,3.585l.19.166-.185.161c-.053-.064-.108-.127-.163-.189ZM5.25,1.065H11.1V2.271c-.036-.017-.075-.029-.112-.045-.163-.073-.329-.141-.5-.2-.077-.027-.155-.05-.233-.075-.143-.045-.288-.085-.436-.121-.082-.02-.163-.038-.246-.055-.156-.032-.315-.057-.475-.077-.072-.01-.144-.021-.216-.029-.233-.023-.467-.038-.707-.038s-.474.015-.706.038c-.073.007-.144.019-.216.029-.161.021-.32.046-.476.077-.083.016-.164.036-.246.055-.148.036-.293.076-.436.121-.078.024-.157.047-.233.075-.171.06-.337.128-.5.2-.037.016-.076.028-.112.045Zm5.85,11.87H5.25V11.729c.031.015.064.024.1.038q.264.119.542.216c.048.016.1.031.145.046q.3.1.617.167l.031.007a6.819,6.819,0,0,0,2.987,0L9.7,12.2q.315-.07.617-.167c.048-.015.1-.03.145-.046q.278-.1.542-.216c.031-.014.065-.024.1-.038Zm.1-1.92a5.6,5.6,0,0,1-.623.3l-.079.033a6.44,6.44,0,0,1-4.651,0l-.07-.029a5.5,5.5,0,0,1-.636-.311A4.683,4.683,0,0,1,2.65,7,4.681,4.681,0,0,1,5.141,2.989a5.478,5.478,0,0,1,.635-.31l.073-.031a6.437,6.437,0,0,1,4.651,0l.077.032a5.38,5.38,0,0,1,.624.305A4.682,4.682,0,0,1,13.7,7,4.681,4.681,0,0,1,11.2,11.015ZM14.35,7v.283h-.016c.005-.094.016-.187.016-.283s-.011-.188-.016-.283h.016Z" transform="translate(-2 -0.5)" fill="#fff" stroke="#fff" stroke-width="0.2"/></g><g transform="translate(12.103 0.31)"><g transform="translate(6.207 1.734)"><path d="M13.414,10.128h-3.1A.335.335,0,0,1,10,9.773V8.355a.313.313,0,1,1,.621,0V9.419h2.793a.358.358,0,0,1,0,.709Z" transform="translate(-10 -8)" fill="#fff" stroke="#fff" stroke-width="0.1"/></g><g transform="translate(9.931 5.675)"><path d="M17.862,16.256A2.011,2.011,0,0,1,16,14.128,2.011,2.011,0,0,1,17.862,12a2.011,2.011,0,0,1,1.862,2.128A2.011,2.011,0,0,1,17.862,16.256Zm0-3.547a1.34,1.34,0,0,0-1.241,1.419,1.34,1.34,0,0,0,1.241,1.419A1.34,1.34,0,0,0,19.1,14.128,1.34,1.34,0,0,0,17.862,12.709Z" transform="translate(-16 -12)" fill="#fff" stroke="#fff" stroke-width="0.1"/></g><g transform="translate(0.621 5.675)"><path d="M2.862,16.256A2.011,2.011,0,0,1,1,14.128,2.011,2.011,0,0,1,2.862,12a2.011,2.011,0,0,1,1.862,2.128A2.011,2.011,0,0,1,2.862,16.256Zm0-3.547a1.34,1.34,0,0,0-1.241,1.419,1.34,1.34,0,0,0,1.241,1.419A1.34,1.34,0,0,0,4.1,14.128,1.34,1.34,0,0,0,2.862,12.709Z" transform="translate(-1 -12)" fill="#fff" stroke="#fff" stroke-width="0.1"/></g><g transform="translate(3.724 7.545)"><path d="M12.517,15.709H6.31a.358.358,0,0,1,0-.709h6.207a.358.358,0,0,1,0,.709Z" transform="translate(-6 -15)" fill="#fff" stroke="#fff" stroke-width="0.1"/></g><path d="M13.966,14.512h-.621c-.171,0-.31-.191-.31-.426s.139-.426.31-.426h.621a.527.527,0,0,0,.31-.426v-1.7A2.825,2.825,0,0,0,11.483,9.4a.268.268,0,0,1-.2-.1A7.625,7.625,0,0,0,5.9,6.851a7.03,7.03,0,0,0-3.328.818A.233.233,0,0,1,2.45,7.7H1.68l.016.022a.522.522,0,0,1,.09.332.484.484,0,0,1-.125.311,3.713,3.713,0,0,0-1.041,2.74c0,2.318.308,2.553.31,2.554.171,0,.31.191.31.426s-.139.426-.31.426C.1,14.512,0,12.569,0,11.107A4.792,4.792,0,0,1,1.015,7.994l-.3-.415a.546.546,0,0,1-.067-.464.327.327,0,0,1,.287-.263H2.388A7.554,7.554,0,0,1,5.9,6a8.03,8.03,0,0,1,5.7,2.555,3.457,3.457,0,0,1,3.3,2.978v1.7A1.237,1.237,0,0,1,13.966,14.512Z" transform="translate(0 -6)" fill="#fff" stroke="#fff" stroke-width="0.1"/></g><circle cx="5.586" cy="5.586" r="5.586" fill="none" stroke="#fff" stroke-linecap="round" stroke-linejoin="round" stroke-width="0.8"/><path d="M12.8,9.419a1.257,1.257,0,0,1-.394.943,1.8,1.8,0,0,1-1.056.465v.567a.207.207,0,0,1-.207.207h-.176a.207.207,0,0,1-.207-.207v-.553a3.205,3.205,0,0,1-.88-.187,2.328,2.328,0,0,1-.488-.247q-.031-.021-.091-.067h0a.207.207,0,0,1-.06-.254l.086-.179a.207.207,0,0,1,.277-.1l.023.013.058.037a3.323,3.323,0,0,0,.477.263,2.4,2.4,0,0,0,.816.134,1.334,1.334,0,0,0,.806-.211.708.708,0,0,0,.285-.605.5.5,0,0,0-.151-.377,1.015,1.015,0,0,0-.377-.222q-.225-.077-.626-.183a6.833,6.833,0,0,1-.859-.267,1.429,1.429,0,0,1-.567-.415,1.124,1.124,0,0,1-.236-.746,1.3,1.3,0,0,1,.412-.968,1.81,1.81,0,0,1,1.087-.475v-.56a.207.207,0,0,1,.207-.207h.176a.207.207,0,0,1,.207.207v.56a2.642,2.642,0,0,1,.771.2,2.28,2.28,0,0,1,.344.182q.059.038.144.106h0a.207.207,0,0,1,.057.253l-.077.158a.208.208,0,0,1-.307.078l0,0a2.073,2.073,0,0,0-1.224-.394,1.239,1.239,0,0,0-.774.222.726.726,0,0,0-.289.609.583.583,0,0,0,.162.426,1.067,1.067,0,0,0,.4.253,5.992,5.992,0,0,0,.655.187,6.486,6.486,0,0,1,.831.253,1.36,1.36,0,0,1,.542.394A1.067,1.067,0,0,1,12.8,9.419Z" transform="translate(-5.394 -2.937)" fill="#fff" fill-rule="evenodd"/></g></svg>