<svg xmlns="http://www.w3.org/2000/svg" width="15.501" height="19.447" viewBox="0 0 15.501 19.447"><g transform="translate(0.251 0.251)"><g transform="translate(0 2.368)"><path d="M5.263,8.526A2.763,2.763,0,1,1,8.026,5.763,2.766,2.766,0,0,1,5.263,8.526Zm0-4.737A1.974,1.974,0,1,0,7.237,5.763,1.976,1.976,0,0,0,5.263,3.789Z" transform="translate(-2.5 -3)" fill="#fff" stroke="#fff" stroke-width="0.5"/></g><g transform="translate(9.474 11.052)"><path d="M17.263,19.526a2.763,2.763,0,1,1,2.763-2.763A2.766,2.766,0,0,1,17.263,19.526Zm0-4.737a1.974,1.974,0,1,0,1.974,1.974A1.976,1.976,0,0,0,17.263,14.789Z" transform="translate(-14.5 -14)" fill="#fff" stroke="#fff" stroke-width="0.5"/></g><path d="M2.895,18.947a.395.395,0,0,1-.317-.629L16,.16a.395.395,0,0,1,.635.47L3.212,18.788A.4.4,0,0,1,2.895,18.947Z" transform="translate(-2.499 -0.001)" fill="#fff" stroke="#fff" stroke-width="0.5"/></g></svg>