<svg xmlns="http://www.w3.org/2000/svg" width="20.5" height="20.5" viewBox="0 0 20.5 20.5"><g transform="translate(-10.038 -10.037)"><path d="M30.057,10.287H22.241a.232.232,0,0,0-.163.067L10.355,22.078a.23.23,0,0,0,0,.326l7.816,7.816a.231.231,0,0,0,.326,0L30.221,18.5a.23.23,0,0,0,.067-.163V10.517a.231.231,0,0,0-.231-.23Zm-.23,7.951L18.334,29.731l-7.49-7.49L22.336,10.747h7.49Z" fill="#fff" stroke="#fff" stroke-width="0.5"/><path d="M23.916,33.156a2.072,2.072,0,1,0,1.465.607A2.06,2.06,0,0,0,23.916,33.156Zm1.139,3.212a1.651,1.651,0,0,1-2.28,0,1.612,1.612,0,1,1,2.28,0Z" transform="translate(-6.233 -12.337)" fill="#fff" stroke="#fff" stroke-width="0.5"/></g></svg>