<svg xmlns="http://www.w3.org/2000/svg" width="19" height="19" viewBox="0 0 19 19"><g transform="translate(-7.153 -7.153)"><path d="M24.49,16.837A4.592,4.592,0,1,0,19.9,12.245,4.6,4.6,0,0,0,24.49,16.837Zm0-8.816a4.224,4.224,0,1,1-4.224,4.224A4.229,4.229,0,0,1,24.49,8.02Z" transform="translate(-7.837 0)" fill="#fff" stroke="#fff" stroke-width="1"/><path d="M21.365,35.793a.182.182,0,0,0-.212.014,7.151,7.151,0,0,1-9,0,.183.183,0,0,0-.212-.014,8.949,8.949,0,0,0-4.288,7.668.184.184,0,0,0,.184.184H25.469a.184.184,0,0,0,.184-.184A8.949,8.949,0,0,0,21.365,35.793ZM8.022,43.278a8.58,8.58,0,0,1,4-7.1,7.518,7.518,0,0,0,9.256,0,8.58,8.58,0,0,1,4,7.1H8.022Z" transform="translate(0 -17.992)" fill="#fff" stroke="#fff" stroke-width="1"/></g></svg>