<svg xmlns="http://www.w3.org/2000/svg" width="16.013" height="16.007" viewBox="0 0 16.013 16.007"><g transform="translate(-7.911 -8.91)"><path d="M6.858-1.4a6.351,6.351,0,0,0,3.213.837A6.826,6.826,0,0,0,12.564,1.95a7.657,7.657,0,0,0,1,3.524,9.577,9.577,0,0,0-1,3.327,10.663,10.663,0,0,0-2.3,2.624,6.642,6.642,0,0,0-3.4.938,9.341,9.341,0,0,0-3.532-.938A12.418,12.418,0,0,0,.742,8.8,5.841,5.841,0,0,0-.141,5.474,13.117,13.117,0,0,0,.742,1.95,8.3,8.3,0,0,0,3.326-.565,8.658,8.658,0,0,0,6.858-1.4Z" transform="translate(9.264 11.637)" fill="#5d73ea"/><path d="M29.284,25.565,25.8,29.748,23.779,28.4a.179.179,0,0,0-.2.3l2.153,1.436a.177.177,0,0,0,.1.03.18.18,0,0,0,.138-.065l3.589-4.307a.18.18,0,1,0-.276-.23Z" transform="translate(-10.604 -10.916)" fill="#fff" stroke="#fff" stroke-width="1"/><path d="M22.4,14.841l-.964-1.669V11.244a.153.153,0,0,0-.076-.132l-1.669-.964-.964-1.669a.152.152,0,0,0-.132-.076H16.663l-1.67-.964a.153.153,0,0,0-.153,0L13.172,8.4H11.244a.152.152,0,0,0-.132.076l-.964,1.669-1.669.964a.152.152,0,0,0-.076.132v1.928l-.964,1.669a.153.153,0,0,0,0,.153l.964,1.67v1.928a.152.152,0,0,0,.076.132l1.669.964.964,1.669a.153.153,0,0,0,.132.076h1.928l1.669.964a.153.153,0,0,0,.153,0l1.67-.964h1.928a.153.153,0,0,0,.132-.076l.964-1.669,1.669-.964a.153.153,0,0,0,.076-.132V16.663l.964-1.67A.153.153,0,0,0,22.4,14.841Zm-1.248,1.705a.152.152,0,0,0-.02.076V18.5l-1.629.941a.151.151,0,0,0-.056.056L18.5,21.128H16.622a.152.152,0,0,0-.076.02l-1.629.94-1.629-.94a.152.152,0,0,0-.076-.02H11.332l-.94-1.629a.153.153,0,0,0-.056-.056L8.707,18.5V16.622a.152.152,0,0,0-.02-.076l-.941-1.629.941-1.629a.152.152,0,0,0,.02-.076V11.332l1.629-.94a.153.153,0,0,0,.056-.056l.94-1.629h1.881a.152.152,0,0,0,.076-.02l1.629-.941,1.629.941a.152.152,0,0,0,.076.02H18.5l.941,1.629a.151.151,0,0,0,.056.056l1.629.94v1.881a.152.152,0,0,0,.02.076l.94,1.629Z" transform="translate(1 2)" fill="#fff" stroke="#fff" stroke-width="1"/></g></svg>